<?xml version="1.0" encoding="UTF-8" standalone="no"?>
<!-- Generator: Adobe Illustrator 19.0.0, SVG Export Plug-In . SVG Version: 6.00 Build 0)  -->

<svg
   xmlns:dc="http://purl.org/dc/elements/1.1/"
   xmlns:cc="http://creativecommons.org/ns#"
   xmlns:rdf="http://www.w3.org/1999/02/22-rdf-syntax-ns#"
   xmlns:svg="http://www.w3.org/2000/svg"
   xmlns="http://www.w3.org/2000/svg"
   xmlns:sodipodi="http://sodipodi.sourceforge.net/DTD/sodipodi-0.dtd"
   xmlns:inkscape="http://www.inkscape.org/namespaces/inkscape"
   version="1.1"
   id="Ebene_1"
   x="0px"
   y="0px"
   viewBox="0 0 1080 1080"
   style="enable-background:new 0 0 1080 1080;"
   xml:space="preserve"
   sodipodi:docname="logo_alpha2.svg"
   inkscape:version="0.92.4 (5da689c313, 2019-01-14)"><metadata
     id="metadata1103"><rdf:RDF><cc:Work
         rdf:about=""><dc:format>image/svg+xml</dc:format><dc:type
           rdf:resource="http://purl.org/dc/dcmitype/StillImage" /><dc:title></dc:title></cc:Work></rdf:RDF></metadata><defs
     id="defs1101" /><sodipodi:namedview
     pagecolor="#ffffff"
     bordercolor="#666666"
     borderopacity="1"
     objecttolerance="10"
     gridtolerance="10"
     guidetolerance="10"
     inkscape:pageopacity="0"
     inkscape:pageshadow="2"
     inkscape:window-width="1920"
     inkscape:window-height="1017"
     id="namedview1099"
     showgrid="false"
     inkscape:zoom="0.57550636"
     inkscape:cx="481.57492"
     inkscape:cy="490.14316"
     inkscape:window-x="-8"
     inkscape:window-y="-8"
     inkscape:window-maximized="1"
     inkscape:current-layer="Ebene_1" /><style
     type="text/css"
     id="style960">
	.st0{display:none;}
	.st1{display:inline;}
	.st2{fill:none;stroke:#FFFFFF;stroke-width:20;stroke-linecap:round;stroke-linejoin:round;stroke-miterlimit:10;}
	.st3{display:inline;fill:none;stroke:#FFFFFF;stroke-width:20;stroke-linejoin:round;stroke-miterlimit:10;}
	.st4{fill:#010202;}
	.st5{fill:#439DD6;}
	.st6{fill:#F7C560;}
	.st7{fill:#E01F3F;}
</style><g
     id="CPU_Rahmen_-_Linien"
     class="st0"><g
       id="Zacken_Rechts_1_"
       class="st1"><line
         id="XMLID_56_"
         class="st2"
         x1="750"
         y1="702"
         x2="810"
         y2="702" /><line
         id="XMLID_55_"
         class="st2"
         x1="750"
         y1="648"
         x2="810"
         y2="648" /><line
         id="XMLID_54_"
         class="st2"
         x1="750"
         y1="594"
         x2="810"
         y2="594" /><line
         id="XMLID_53_"
         class="st2"
         x1="750"
         y1="540"
         x2="810"
         y2="540" /><line
         id="XMLID_52_"
         class="st2"
         x1="750"
         y1="486"
         x2="810"
         y2="486" /><line
         id="XMLID_51_"
         class="st2"
         x1="750"
         y1="432"
         x2="810"
         y2="432" /><line
         id="XMLID_50_"
         class="st2"
         x1="750"
         y1="378"
         x2="810"
         y2="378" /></g><g
       id="Zacken_Links_1_"
       class="st1"><line
         id="XMLID_49_"
         class="st2"
         x1="270"
         y1="702"
         x2="330"
         y2="702" /><line
         id="XMLID_48_"
         class="st2"
         x1="270"
         y1="648"
         x2="330"
         y2="648" /><line
         id="XMLID_47_"
         class="st2"
         x1="270"
         y1="594"
         x2="330"
         y2="594" /><line
         id="XMLID_46_"
         class="st2"
         x1="270"
         y1="540"
         x2="330"
         y2="540" /><line
         id="XMLID_45_"
         class="st2"
         x1="270"
         y1="486"
         x2="330"
         y2="486" /><line
         id="XMLID_44_"
         class="st2"
         x1="270"
         y1="432"
         x2="330"
         y2="432" /><line
         id="XMLID_43_"
         class="st2"
         x1="270"
         y1="378"
         x2="330"
         y2="378" /></g><g
       id="Zacken_Unten_1_"
       class="st1"><line
         id="XMLID_42_"
         class="st2"
         x1="702"
         y1="810"
         x2="702"
         y2="750" /><line
         id="XMLID_41_"
         class="st2"
         x1="648"
         y1="810"
         x2="648"
         y2="750" /><line
         id="XMLID_40_"
         class="st2"
         x1="594"
         y1="810"
         x2="594"
         y2="750" /><line
         id="XMLID_39_"
         class="st2"
         x1="540"
         y1="810"
         x2="540"
         y2="750" /><line
         id="XMLID_38_"
         class="st2"
         x1="486"
         y1="810"
         x2="486"
         y2="750" /><line
         id="XMLID_37_"
         class="st2"
         x1="432"
         y1="810"
         x2="432"
         y2="750" /><line
         id="XMLID_34_"
         class="st2"
         x1="378"
         y1="810"
         x2="378"
         y2="750" /></g><g
       id="Zacken_Oben_1_"
       class="st1"><line
         id="XMLID_33_"
         class="st2"
         x1="702"
         y1="270"
         x2="702"
         y2="330" /><line
         id="XMLID_32_"
         class="st2"
         x1="648"
         y1="330"
         x2="648"
         y2="270" /><line
         id="XMLID_29_"
         class="st2"
         x1="594"
         y1="330"
         x2="594"
         y2="270" /><line
         id="XMLID_27_"
         class="st2"
         x1="540"
         y1="330"
         x2="540"
         y2="270" /><line
         id="XMLID_22_"
         class="st2"
         x1="486"
         y1="330"
         x2="486"
         y2="270" /><line
         id="XMLID_3_"
         class="st2"
         x1="432"
         y1="330"
         x2="432"
         y2="270" /><line
         id="XMLID_4_"
         class="st2"
         x1="378"
         y1="386.6"
         x2="378"
         y2="296.6" /></g><rect
       id="Mitte_1_"
       x="330"
       y="330"
       class="st3"
       width="420"
       height="420" /></g><g
     id="CPU_Rahmen"><g
       id="XMLID_95_"><g
         id="Pins_Rechts_8_"><path
           id="_x36__35_"
           class="st5"
           d="M1041.8,864H920.2c-8.7,0-16.6-4.9-19.2-12.3c-4.3-12.4,6-23.7,19.3-23.7h121.6     c8.7,0,16.6,4.9,19.2,12.3C1065.3,852.7,1055,864,1041.8,864z" /><path
           id="_x34__17_"
           class="st5"
           d="M1041.8,711H920.2c-8.7,0-16.6-4.9-19.2-12.3c-4.3-12.4,6-23.7,19.3-23.7h121.6     c8.7,0,16.6,4.9,19.2,12.3C1065.3,699.7,1055,711,1041.8,711z" /><path
           id="_x33__27_"
           class="st5"
           d="M1041.8,558H920.2c-8.7,0-16.6-4.9-19.2-12.3c-4.3-12.4,6-23.7,19.3-23.7h121.6     c8.7,0,16.6,4.9,19.2,12.3C1065.3,546.7,1055,558,1041.8,558z" /><path
           id="_x32__9_"
           class="st5"
           d="M1041.8,405H920.2c-8.7,0-16.6-4.9-19.2-12.3c-4.3-12.4,6-23.7,19.3-23.7h121.6     c8.7,0,16.6,4.9,19.2,12.3C1065.3,393.7,1055,405,1041.8,405z" /><path
           id="_x30__35_"
           class="st5"
           d="M1041.8,252l-121.6,0c-8.7,0-16.6-4.9-19.2-12.3c-4.3-12.4,6-23.7,19.3-23.7h121.6     c8.7,0,16.6,4.9,19.2,12.3C1065.3,240.7,1055,252,1041.8,252z" /></g><g
         id="Pins_Links_8_"><path
           id="_x36__34_"
           class="st5"
           d="M159.8,864H38.2c-8.7,0-16.6-4.9-19.2-12.3c-4.3-12.4,6-23.7,19.3-23.7h121.6     c8.7,0,16.6,4.9,19.2,12.3C183.3,852.7,173,864,159.8,864z" /><path
           id="_x35__26_"
           class="st5"
           d="M159.8,711H38.2c-8.7,0-16.6-4.9-19.2-12.3c-4.3-12.4,6-23.7,19.3-23.7h121.6     c8.7,0,16.6,4.9,19.2,12.3C183.3,699.7,173,711,159.8,711z" /><path
           id="_x34__16_"
           class="st5"
           d="M159.8,558H38.2c-8.7,0-16.6-4.9-19.2-12.3c-4.3-12.4,6-23.7,19.3-23.7h121.6     c8.7,0,16.6,4.9,19.2,12.3C183.3,546.7,173,558,159.8,558z" /><path
           id="_x31__26_"
           class="st5"
           d="M159.7,405H38.2c-8.7,0-16.6-4.9-19.2-12.3c-4.3-12.4,6-23.7,19.3-23.7h121.6     c8.7,0,16.6,4.9,19.2,12.3C183.3,393.7,173,405,159.7,405z" /><path
           id="_x30__34_"
           class="st5"
           d="M159.7,252l-121.6,0c-8.7,0-16.6-4.9-19.2-12.3c-4.3-12.4,6-23.7,19.3-23.7l121.6,0     c8.7,0,16.6,4.9,19.2,12.3C183.3,240.7,173,252,159.7,252z" /></g><g
         id="Pins_Unten_8_"><path
           id="_x36__33_"
           class="st5"
           d="M840.3,1061c-7.4-2.6-12.3-10.5-12.3-19.2V920.2c0-8.7,4.9-16.6,12.3-19.2     c12.4-4.3,23.7,6,23.7,19.3v121.5C864,1055,852.7,1065.3,840.3,1061z" /><path
           id="_x35__25_"
           class="st5"
           d="M687.3,1061c-7.4-2.6-12.3-10.5-12.3-19.2V920.2c0-8.7,4.9-16.6,12.3-19.2     c12.4-4.3,23.7,6,23.7,19.3v121.5C711,1055,699.7,1065.3,687.3,1061z" /><path
           id="_x33__26_"
           class="st5"
           d="M534.3,1061c-7.4-2.6-12.3-10.5-12.3-19.2V920.2c0-8.7,4.9-16.6,12.3-19.2     c12.4-4.3,23.7,6,23.7,19.3v121.5C558,1055,546.7,1065.3,534.3,1061z" /><path
           id="_x31__25_"
           class="st5"
           d="M381.3,1061c-7.4-2.6-12.3-10.5-12.3-19.2V920.2c0-8.7,4.9-16.6,12.3-19.2     c12.4-4.3,23.7,6,23.7,19.3v121.5C405,1055,393.7,1065.3,381.3,1061z" /><path
           id="_x30__33_"
           class="st5"
           d="M228.3,1061c-7.4-2.6-12.3-10.5-12.3-19.2V920.2c0-8.7,4.9-16.6,12.3-19.2     c12.4-4.3,23.7,6,23.7,19.3v121.5C252,1055,240.7,1065.3,228.3,1061z" /></g><g
         id="Pins_Oben_8_"><path
           id="_x36__32_"
           class="st5"
           d="M840.3,179c-7.4-2.6-12.3-10.5-12.3-19.2c0-25.8,0-95.9,0-121.6c0-8.7,4.9-16.6,12.3-19.2     c12.4-4.3,23.7,6,23.7,19.3v121.5C864,173,852.7,183.3,840.3,179z" /><path
           id="_x35__24_"
           class="st5"
           d="M687.3,179c-7.4-2.6-12.3-10.5-12.3-19.2c0-25.8,0-95.9,0-121.6c0-8.7,4.9-16.6,12.3-19.2     c12.4-4.3,23.7,6,23.7,19.3v121.5C711,173,699.7,183.3,687.3,179z" /><path
           id="_x33__25_"
           class="st5"
           d="M534.3,179c-7.4-2.6-12.3-10.5-12.3-19.2c0-25.8,0-95.9,0-121.6c0-8.7,4.9-16.6,12.3-19.2     c12.4-4.3,23.7,6,23.7,19.3v121.5C558,173,546.7,183.3,534.3,179z" /><path
           id="_x31__24_"
           class="st5"
           d="M381.3,179c-7.4-2.6-12.3-10.5-12.3-19.2c0-25.8,0-95.9,0-121.6c0-8.7,4.9-16.6,12.3-19.2     c12.4-4.3,23.7,6,23.7,19.3v121.5C405,173,393.7,183.3,381.3,179z" /><path
           id="_x30__32_"
           class="st5"
           d="M228.3,179c-7.4-2.6-12.3-10.5-12.3-19.2c0-25.8,0-95.9,0-121.6c0-8.7,4.9-16.6,12.3-19.2     c12.4-4.3,23.7,6,23.7,19.3v121.5C252,173,240.7,183.3,228.3,179z" /></g><path
         id="Mitte_9_"
         class="st5"
         d="M918,936H162c-9.9,0-18-8.1-18-18V162c0-9.9,8.1-18,18-18h756c9.9,0,18,8.1,18,18v756    C936,927.9,927.9,936,918,936z M180,900h720V180H180V900z" /></g></g><g
     id="_x32_019_Memory_Controller"><rect
       id="XMLID_2_"
       x="774"
       y="765"
       class="st6"
       width="36"
       height="18"
       style="fill:#ffa86a;fill-opacity:1" /><rect
       id="XMLID_36_"
       x="441"
       y="765"
       class="st6"
       width="36"
       height="54"
       style="fill:#ffa86a;fill-opacity:1" /><path
       id="XMLID_63_"
       class="st6"
       d="M846,720H234c-9.9,0-18,8.1-18,18v108c0,9.9,8.1,18,18,18h612c9.9,0,18-8.1,18-18V738   C864,728.1,855.9,720,846,720z M324,792c0,5-4,9-9,9h-45v18h45c5,0,9,4,9,9s-4,9-9,9h-54c-5,0-9-4-9-9v-36c0-5,4-9,9-9h45v-18h-45   c-5,0-9-4-9-9s4-9,9-9h54c5,0,9,4,9,9V792z M495,828c0,5-4,9-9,9h-54c-5,0-9-4-9-9v-72c0-5,4-9,9-9h54c5,0,9,4,9,9V828z M639,828   c0,5-4,9-9,9s-9-4-9-9v-63h-9c-5,0-9-4-9-9s4-9,9-9h18c5,0,9,4,9,9V828z M828,792v36c0,5-4,9-9,9h-54c-5,0-9-4-9-9s4-9,9-9h45v-18   h-45c-5,0-9-4-9-9v-36c0-5,4-9,9-9h54c5,0,9,4,9,9V792z"
       style="fill:#ffa86a;fill-opacity:1" /></g><g
     id="CPU_Cores"
     style="fill:#ffa86a;fill-opacity:1"><g
       id="XMLID_274_"
       style="fill:#ffa86a;fill-opacity:1"><g
         id="CPU_Rechts_8_"
         style="fill:#ffa86a;fill-opacity:1"><g
           id="U_18_"
           style="fill:#ffa86a;fill-opacity:1"><path
             id="XMLID_294_"
             class="st6"
             d="M846,684h-90c-9.9,0-18-8.1-18-18l0,0c0-9.9,8.1-18,18-18h90c9.9,0,18,8.1,18,18l0,0      C864,675.9,855.9,684,846,684z"
             style="fill:#ffa86a;fill-opacity:1" /><path
             id="XMLID_293_"
             class="st6"
             d="M864,557.7v108.7c0,9.8-7.9,17.7-17.7,17.7h-0.7c-9.8,0-17.7-7.9-17.7-17.7V557.7      c0-9.8,7.9-17.7,17.7-17.7h0.7C856.1,540,864,547.9,864,557.7z"
             style="fill:#ffa86a;fill-opacity:1" /><path
             id="XMLID_292_"
             class="st6"
             d="M774,557.7v108.7c0,9.8-7.9,17.7-17.7,17.7h-0.7c-9.8,0-17.7-7.9-17.7-17.7V557.7      c0-9.8,7.9-17.7,17.7-17.7h0.7C766.1,540,774,547.9,774,557.7z"
             style="fill:#ffa86a;fill-opacity:1" /></g><g
           id="P_18_"
           style="fill:#ffa86a;fill-opacity:1"><path
             id="XMLID_291_"
             class="st6"
             d="M846.3,468h-90.7c-9.8,0-17.7-7.9-17.7-17.7v-0.7c0-9.8,7.9-17.7,17.7-17.7h90.7      c9.8,0,17.7,7.9,17.7,17.7v0.7C864,460.1,856.1,468,846.3,468z"
             style="fill:#ffa86a;fill-opacity:1" /><path
             id="XMLID_290_"
             class="st6"
             d="M846.3,414h-90.7c-9.8,0-17.7-7.9-17.7-17.7v-0.7c0-9.8,7.9-17.7,17.7-17.7h90.7      c9.8,0,17.7,7.9,17.7,17.7v0.7C864,406.1,856.1,414,846.3,414z"
             style="fill:#ffa86a;fill-opacity:1" /><path
             id="XMLID_289_"
             class="st6"
             d="M864,395.7v54.7c0,9.8-7.9,17.7-17.7,17.7h-0.7c-9.8,0-17.7-7.9-17.7-17.7v-54.7      c0-9.8,7.9-17.7,17.7-17.7h0.7C856.1,378,864,385.9,864,395.7z"
             style="fill:#ffa86a;fill-opacity:1" /><path
             id="XMLID_288_"
             class="st6"
             d="M774,395.7v108.7c0,9.8-7.9,17.7-17.7,17.7h-0.7c-9.8,0-17.7-7.9-17.7-17.7V395.7      c0-9.8,7.9-17.7,17.7-17.7h0.7C766.1,378,774,385.9,774,395.7z"
             style="fill:#ffa86a;fill-opacity:1" /></g><g
           id="C_18_"
           style="fill:#ffa86a;fill-opacity:1"><path
             id="XMLID_287_"
             class="st6"
             d="M846,252h-90c-9.9,0-18-8.1-18-18v0c0-9.9,8.1-18,18-18h90c9.9,0,18,8.1,18,18v0      C864,243.9,855.9,252,846,252z"
             style="fill:#ffa86a;fill-opacity:1" /><rect
             id="XMLID_286_"
             x="738"
             y="234"
             class="st6"
             width="36"
             height="108"
             style="fill:#ffa86a;fill-opacity:1" /><path
             id="XMLID_285_"
             class="st6"
             d="M846,360h-90c-9.9,0-18-8.1-18-18v0c0-9.9,8.1-18,18-18h90c9.9,0,18,8.1,18,18v0      C864,351.9,855.9,360,846,360z"
             style="fill:#ffa86a;fill-opacity:1" /></g></g><g
         id="CPU_Links_9_"
         style="fill:#ffa86a;fill-opacity:1"><g
           id="U_17_"
           style="fill:#ffa86a;fill-opacity:1"><path
             id="XMLID_284_"
             class="st6"
             d="M324,684h-90c-9.9,0-18-8.1-18-18l0,0c0-9.9,8.1-18,18-18h90c9.9,0,18,8.1,18,18l0,0      C342,675.9,333.9,684,324,684z"
             style="fill:#ffa86a;fill-opacity:1" /><path
             id="XMLID_283_"
             class="st6"
             d="M342,557.7v108.7c0,9.8-7.9,17.7-17.7,17.7h-0.7c-9.8,0-17.7-7.9-17.7-17.7V557.7      c0-9.8,7.9-17.7,17.7-17.7h0.7C334.1,540,342,547.9,342,557.7z"
             style="fill:#ffa86a;fill-opacity:1" /><path
             id="XMLID_282_"
             class="st6"
             d="M252,557.7v108.7c0,9.8-7.9,17.7-17.7,17.7h-0.7c-9.8,0-17.7-7.9-17.7-17.7V557.7      c0-9.8,7.9-17.7,17.7-17.7h0.7C244.1,540,252,547.9,252,557.7z"
             style="fill:#ffa86a;fill-opacity:1" /></g><g
           id="P_17_"
           style="fill:#ffa86a;fill-opacity:1"><path
             id="XMLID_281_"
             class="st6"
             d="M324.3,468h-90.7c-9.8,0-17.7-7.9-17.7-17.7v-0.7c0-9.8,7.9-17.7,17.7-17.7h90.7      c9.8,0,17.7,7.9,17.7,17.7v0.7C342,460.1,334.1,468,324.3,468z"
             style="fill:#ffa86a;fill-opacity:1" /><path
             id="XMLID_280_"
             class="st6"
             d="M324.3,414h-90.7c-9.8,0-17.7-7.9-17.7-17.7v-0.7c0-9.8,7.9-17.7,17.7-17.7h90.7      c9.8,0,17.7,7.9,17.7,17.7v0.7C342,406.1,334.1,414,324.3,414z"
             style="fill:#ffa86a;fill-opacity:1" /><path
             id="XMLID_279_"
             class="st6"
             d="M342,395.7v54.7c0,9.8-7.9,17.7-17.7,17.7h-0.7c-9.8,0-17.7-7.9-17.7-17.7v-54.7      c0-9.8,7.9-17.7,17.7-17.7h0.7C334.1,378,342,385.9,342,395.7z"
             style="fill:#ffa86a;fill-opacity:1" /><path
             id="XMLID_278_"
             class="st6"
             d="M252,395.7v108.7c0,9.8-7.9,17.7-17.7,17.7h-0.7c-9.8,0-17.7-7.9-17.7-17.7V395.7      c0-9.8,7.9-17.7,17.7-17.7h0.7C244.1,378,252,385.9,252,395.7z"
             style="fill:#ffa86a;fill-opacity:1" /></g><g
           id="C_17_"
           style="fill:#ffa86a;fill-opacity:1"><path
             id="XMLID_277_"
             class="st6"
             d="M324,252h-90c-9.9,0-18-8.1-18-18v0c0-9.9,8.1-18,18-18h90c9.9,0,18,8.1,18,18v0      C342,243.9,333.9,252,324,252z"
             style="fill:#ffa86a;fill-opacity:1" /><rect
             id="XMLID_276_"
             x="216"
             y="234"
             class="st6"
             width="36"
             height="108"
             style="fill:#ffa86a;fill-opacity:1" /><path
             id="XMLID_275_"
             class="st6"
             d="M324,360h-90c-9.9,0-18-8.1-18-18v0c0-9.9,8.1-18,18-18h90c9.9,0,18,8.1,18,18v0      C342,351.9,333.9,360,324,360z"
             style="fill:#ffa86a;fill-opacity:1" /></g></g></g></g><g
     id="L3_Cache"><rect
       id="XMLID_96_"
       x="542"
       y="216"
       class="st7"
       width="78"
       height="25" /><rect
       id="XMLID_99_"
       x="460"
       y="216"
       class="st7"
       width="78"
       height="25" /><path
       id="XMLID_100_"
       class="st7"
       d="M456,216h-60c-9.9,0-18,8.1-18,18v7h78V216z" /><rect
       id="XMLID_101_"
       x="542"
       y="245"
       class="st7"
       width="78"
       height="25" /><rect
       id="XMLID_102_"
       x="460"
       y="245"
       class="st7"
       width="78"
       height="25" /><path
       id="XMLID_103_"
       class="st7"
       d="M378,245v7c0,9.9,8.1,18,18,18h60v-25H378z" /><path
       id="XMLID_104_"
       class="st7"
       d="M624,270h60c9.9,0,18-8.1,18-18v-7h-78V270z" /><path
       id="XMLID_105_"
       class="st7"
       d="M684,216h-60v25h78v-7C702,224.1,693.9,216,684,216z" /><path
       id="XMLID_106_"
       class="st7"
       d="M378,569v7c0,9.9,8.1,18,18,18h60v-25H378z" /><rect
       id="XMLID_107_"
       x="378"
       y="540"
       class="st7"
       width="78"
       height="25" /><rect
       id="XMLID_111_"
       x="378"
       y="497"
       class="st7"
       width="78"
       height="25" /><rect
       id="XMLID_112_"
       x="460"
       y="569"
       class="st7"
       width="78"
       height="25" /><path
       id="XMLID_117_"
       class="st7"
       d="M456,468h-60c-9.9,0-18,8.1-18,18v7h78V468z" /><rect
       id="XMLID_118_"
       x="542"
       y="569"
       class="st7"
       width="78"
       height="25" /><path
       id="XMLID_122_"
       class="st7"
       d="M624,594h60c9.9,0,18-8.1,18-18v-7h-78V594z" /><rect
       id="XMLID_123_"
       x="624"
       y="497"
       class="st7"
       width="78"
       height="25" /><path
       id="XMLID_124_"
       class="st7"
       d="M702,493v-7c0-9.9-8.1-18-18-18h-60v25H702z" /><rect
       id="XMLID_125_"
       x="624"
       y="540"
       class="st7"
       width="78"
       height="25" /><rect
       id="XMLID_126_"
       x="378"
       y="335"
       class="st7"
       width="78"
       height="25" /><path
       id="XMLID_130_"
       class="st7"
       d="M378,407v7c0,9.9,8.1,18,18,18h60v-25H378z" /><rect
       id="XMLID_131_"
       x="624"
       y="335"
       class="st7"
       width="78"
       height="25" /><path
       id="XMLID_132_"
       class="st7"
       d="M456,306h-60c-9.9,0-18,8.1-18,18v7h78V306z" /><rect
       id="XMLID_133_"
       x="542"
       y="306"
       class="st7"
       width="78"
       height="25" /><path
       id="XMLID_135_"
       class="st7"
       d="M702,331v-7c0-9.9-8.1-18-18-18h-60v25H702z" /><rect
       id="XMLID_142_"
       x="624"
       y="378"
       class="st7"
       width="78"
       height="25" /><path
       id="XMLID_143_"
       class="st7"
       d="M624,432h60c9.9,0,18-8.1,18-18v-7h-78V432z" /><rect
       id="XMLID_145_"
       x="460"
       y="306"
       class="st7"
       width="78"
       height="25" /><rect
       id="XMLID_147_"
       x="378"
       y="378"
       class="st7"
       width="78"
       height="25" /><rect
       id="XMLID_149_"
       x="460"
       y="659"
       class="st7"
       width="78"
       height="25" /><path
       id="XMLID_150_"
       class="st7"
       d="M456,630h-60c-9.9,0-18,8.1-18,18v7h78V630z" /><path
       id="XMLID_151_"
       class="st7"
       d="M624,684h60c9.9,0,18-8.1,18-18v-7h-78V684z" /><rect
       id="XMLID_152_"
       x="542"
       y="659"
       class="st7"
       width="78"
       height="25" /><path
       id="XMLID_153_"
       class="st7"
       d="M378,659v7c0,9.9,8.1,18,18,18h60v-25H378z" /><rect
       id="XMLID_154_"
       x="460"
       y="630"
       class="st7"
       width="78"
       height="25" /><path
       id="XMLID_155_"
       class="st7"
       d="M702,655v-7c0-9.9-8.1-18-18-18h-60v25H702z" /><rect
       id="XMLID_156_"
       x="542"
       y="630"
       class="st7"
       width="78"
       height="25" /></g><g
     id="Mülleimer"
     style="fill:#ffa86a;fill-opacity:1"><path
       id="XMLID_5_"
       class="st6"
       d="M614,344h-38v-4c0-5-4-6-9-6h-54c-5,0-9,1-9,6v4h-38c-11,0-20,9-20,20v2c0,1.7,1.3,3,3,3h182   c1.7,0,3-1.3,3-3v-2C634,353,625,344,614,344z"
       style="fill:#ffa86a;fill-opacity:1" /><path
       id="XMLID_86_"
       class="st6"
       d="M612,378H468c-4.2,0-8,4.2-8,9l12,174c0.3,4.5,4,5,8,5h120c4,0,7.7-0.5,8-5l12-174   C620,382.2,616.2,378,612,378z M499.6,553h-8c-1.6,0-2.9-1.2-3-2.8l-10.6-151c-0.1-1.7,1.3-3.2,3-3.2h8c1.6,0,2.9,1.2,3,2.8   l10.6,151C502.7,551.5,501.3,553,499.6,553z M547,550c0,1.7-1.3,3-3,3h-8c-1.7,0-3-1.3-3-3V399c0-1.7,1.3-3,3-3h8c1.7,0,3,1.3,3,3   V550z M591.4,550.2c-0.1,1.6-1.4,2.8-3,2.8h-8c-1.7,0-3.1-1.5-3-3.2l10.6-151c0.1-1.6,1.4-2.8,3-2.8h8c1.7,0,3.1,1.5,3,3.2   L591.4,550.2z"
       style="fill:#ffa86a;fill-opacity:1" /></g></svg>